<svg width="648" height="800" viewBox="0 0 648 800" fill="none" xmlns="http://www.w3.org/2000/svg">
<mask id="mask0_2437_6494" style="mask-type:alpha" maskUnits="userSpaceOnUse" x="0" y="0" width="648" height="800">
<path d="M0 0L648 0L648 800L8.65486e-07 800L0 0Z" fill="#001F3B"/>
</mask>
<g mask="url(#mask0_2437_6494)">
<path d="M0 0L648 0L648 800L8.65486e-07 800L0 0Z" fill="#001F3B"/>
<g filter="url(#filter0_f_2437_6494)">
<path d="M193.713 1223.3C148.518 1397.36 -21.6805 1504.73 -117.815 1551.13C-129.766 1558.03 -142.51 1551.73 -150.131 1542.47C-215.837 1448.38 -303.705 1264.64 -260.675 1098.66C-215.479 924.608 -41.8669 815.267 48.953 783.32C56.7677 781.084 66.5538 782.263 75.8825 790.536C136.59 860.198 240.351 1043.86 193.713 1223.3Z" fill="#72D09A" fill-opacity="0.6"/>
<path d="M-132.636 691.195C-305.971 643.307 -416.297 467.987 -462.695 371.852C-469.595 359.901 -465.002 348.144 -455.022 337.83C-363.622 271.402 -182.318 187.213 -17.0619 232.936C156.273 280.824 267.585 457.851 300.518 550.378C302.754 558.193 301.574 567.979 293.302 577.308C224.625 639.722 44.3768 741.512 -132.636 691.195Z" fill="#72D09A" fill-opacity="0.6"/>
<path d="M356.48 371.761C401.676 197.705 571.874 90.3361 668.009 43.9379C679.959 37.0381 692.703 43.3389 700.324 52.5968C766.03 146.69 853.898 330.423 810.868 496.4C765.673 670.457 592.06 779.797 501.24 811.745C493.425 813.98 483.639 812.801 474.311 804.529C413.604 734.866 309.842 551.204 356.48 371.761Z" fill="#A7CFFF" fill-opacity="0.4"/>
<path d="M771.117 906.617C944.451 954.505 1054.78 1129.82 1101.18 1225.96C1108.08 1237.91 1103.48 1249.67 1093.5 1259.98C1002.1 1326.41 820.798 1410.6 655.542 1364.88C482.208 1316.99 370.896 1139.96 337.962 1047.43C335.727 1039.62 336.906 1029.83 345.178 1020.5C413.855 958.09 594.104 856.3 771.117 906.617Z" fill="#72D09A" fill-opacity="0.6"/>
</g>
</g>
<defs>
<filter id="filter0_f_2437_6494" x="-642.33" y="-135.324" width="1923.14" height="1865.71" filterUnits="userSpaceOnUse" color-interpolation-filters="sRGB">
<feFlood flood-opacity="0" result="BackgroundImageFix"/>
<feBlend mode="normal" in="SourceGraphic" in2="BackgroundImageFix" result="shape"/>
<feGaussianBlur stdDeviation="88.1696" result="effect1_foregroundBlur_2437_6494"/>
</filter>
</defs>
</svg>
